<svg width="1049" height="832" viewBox="0 0 1049 832" fill="none" xmlns="http://www.w3.org/2000/svg">
<path d="M962.326 266.784C1076.93 145.751 1102.33 69.8023 1102.33 69.8023L1098.86 -31.2921L1059.52 -11.1653C1008.31 194.077 904.465 338.671 777.881 409.282C651.297 479.893 847.723 387.818 962.326 266.784Z" fill="#045395"/>
<path d="M1099.11 -23.2529C1099.11 -23.2529 1012.26 224.418 820.557 370.46C773.286 406.472 720.625 435.824 670.946 459.021C627.143 486.199 582.586 504.447 537.849 513.728C526.488 516.085 516.818 518.169 508.719 519.973C468.383 531.56 459.189 531.005 508.719 519.973C544.612 509.662 605.165 489.737 670.946 459.021C812.527 371.175 946.225 190.036 1052.65 -83.1388L1098.38 -80.8265L1099.11 -23.2529Z" fill="#045395" fill-opacity="0.08"/>
<path d="M664.236 615.435C413.696 751.149 361.062 912.701 361.062 912.701L361.062 947.201L445.695 920.151C562.266 692.436 932.469 504.95 1132.6 434.118C1332.74 363.286 914.776 479.721 664.236 615.435Z" fill="#045395" fill-opacity="0.08"/>
<path d="M536.174 612.234C285.633 747.948 203.5 901 203.5 901L233 944L317.632 916.949C434.204 689.235 804.407 501.749 1004.54 430.917C1204.67 360.085 786.714 476.52 536.174 612.234Z" fill="#045395"/>
</svg>
