<svg width="457" height="457" viewBox="0 0 457 457" fill="none" xmlns="http://www.w3.org/2000/svg">
<path d="M457 349.514H0V349.742H457V349.514Z" fill="#EBEBEB"/>
<path d="M411.209 364.219H380.938V364.447H411.209V364.219Z" fill="#EBEBEB"/>
<path d="M302.736 366.705H294.793V366.934H302.736V366.705Z" fill="#EBEBEB"/>
<path d="M380.024 355.738H336.453V355.967H380.024V355.738Z" fill="#EBEBEB"/>
<path d="M69.5927 357.273H47.9492V357.502H69.5927V357.273Z" fill="#EBEBEB"/>
<path d="M101.353 357.273H77.7266V357.502H101.353V357.273Z" fill="#EBEBEB"/>
<path d="M179.245 361.131H120.164V361.359H179.245V361.131Z" fill="#EBEBEB"/>
<path d="M216.62 308.749H40.1356C38.753 308.746 37.4279 308.195 36.4511 307.217C35.4744 306.238 34.9258 304.912 34.9258 303.53V55.4428C34.9378 54.0681 35.4917 52.7538 36.4672 51.7851C37.4427 50.8165 38.7609 50.2719 40.1356 50.2695H216.62C218.004 50.2695 219.331 50.8194 220.31 51.7981C221.289 52.7769 221.839 54.1043 221.839 55.4885V303.53C221.839 304.914 221.289 306.241 220.31 307.22C219.331 308.199 218.004 308.749 216.62 308.749ZM40.1356 50.4523C38.8136 50.4548 37.5466 50.9816 36.6127 51.9172C35.6788 52.8529 35.1543 54.1208 35.1543 55.4428V303.53C35.1543 304.852 35.6788 306.12 36.6127 307.055C37.5466 307.991 38.8136 308.518 40.1356 308.52H216.62C217.943 308.518 219.211 307.991 220.146 307.056C221.081 306.121 221.608 304.853 221.61 303.53V55.4428C221.608 54.12 221.081 52.852 220.146 51.9167C219.211 50.9813 217.943 50.4547 216.62 50.4523H40.1356Z" fill="#EBEBEB"/>
<path d="M414.326 308.749H237.832C236.449 308.746 235.123 308.196 234.145 307.217C233.166 306.239 232.616 304.913 232.613 303.53V55.4428C232.628 54.0673 233.184 52.7529 234.161 51.7846C235.137 50.8162 236.457 50.2719 237.832 50.2695H414.326C415.699 50.2743 417.015 50.82 417.988 51.7884C418.962 52.7567 419.514 54.0697 419.526 55.4428V303.53C419.526 304.911 418.979 306.235 418.004 307.214C417.029 308.192 415.707 308.744 414.326 308.749ZM237.832 50.4523C236.509 50.4547 235.241 50.9813 234.306 51.9167C233.371 52.852 232.844 54.12 232.842 55.4428V303.53C232.844 304.853 233.371 306.121 234.306 307.056C235.241 307.991 236.509 308.518 237.832 308.52H414.326C415.648 308.518 416.916 307.991 417.852 307.056C418.787 306.121 419.314 304.853 419.316 303.53V55.4428C419.314 54.12 418.787 52.852 417.852 51.9167C416.916 50.9813 415.648 50.4547 414.326 50.4523H237.832Z" fill="#EBEBEB"/>
<path d="M398.697 86.9297H58.3047V92.2217H398.697V86.9297Z" fill="#F0F0F0"/>
<path d="M398.697 149.137H58.3047V154.429H398.697V149.137Z" fill="#F0F0F0"/>
<path d="M398.697 211.334H58.3047V216.626H398.697V211.334Z" fill="#F0F0F0"/>
<path d="M398.697 273.533H58.3047V278.825H398.697V273.533Z" fill="#F0F0F0"/>
<path d="M106.262 71.2734H94.1609C92.9847 71.2734 92.0312 72.2269 92.0312 73.4031V84.8098C92.0312 85.9859 92.9847 86.9394 94.1609 86.9394H106.262C107.438 86.9394 108.392 85.9859 108.392 84.8098V73.4031C108.392 72.2269 107.438 71.2734 106.262 71.2734Z" fill="#EBEBEB"/>
<path d="M101.281 74.5996H92.0312V83.5111H101.281V74.5996Z" fill="#FAFAFA"/>
<path d="M103.93 67.6172H96.4993C96.1308 67.6172 95.832 67.9159 95.832 68.2844V70.606C95.832 70.9745 96.1308 71.2732 96.4993 71.2732H103.93C104.299 71.2732 104.597 70.9745 104.597 70.606V68.2844C104.597 67.9159 104.299 67.6172 103.93 67.6172Z" fill="#F5F5F5"/>
<path d="M135.133 71.2734H123.032C121.856 71.2734 120.902 72.2269 120.902 73.4031V84.8098C120.902 85.9859 121.856 86.9394 123.032 86.9394H135.133C136.309 86.9394 137.263 85.9859 137.263 84.8098V73.4031C137.263 72.2269 136.309 71.2734 135.133 71.2734Z" fill="#EBEBEB"/>
<path d="M130.152 74.5996H120.902V83.5111H130.152V74.5996Z" fill="#FAFAFA"/>
<path d="M132.793 67.6172H125.363C124.994 67.6172 124.695 67.9159 124.695 68.2844V70.606C124.695 70.9745 124.994 71.2732 125.363 71.2732H132.793C133.162 71.2732 133.461 70.9745 133.461 70.606V68.2844C133.461 67.9159 133.162 67.6172 132.793 67.6172Z" fill="#F5F5F5"/>
<path d="M164.001 71.2734H151.899C150.723 71.2734 149.77 72.2269 149.77 73.4031V84.8098C149.77 85.9859 150.723 86.9394 151.899 86.9394H164.001C165.177 86.9394 166.13 85.9859 166.13 84.8098V73.4031C166.13 72.2269 165.177 71.2734 164.001 71.2734Z" fill="#EBEBEB"/>
<path d="M159.019 74.5996H149.77V83.5111H159.019V74.5996Z" fill="#FAFAFA"/>
<path d="M161.661 67.6172H154.23C153.861 67.6172 153.562 67.9159 153.562 68.2844V70.606C153.562 70.9745 153.861 71.2732 154.23 71.2732H161.661C162.029 71.2732 162.328 70.9745 162.328 70.606V68.2844C162.328 67.9159 162.029 67.6172 161.661 67.6172Z" fill="#F5F5F5"/>
<path d="M192.864 71.2734H180.762C179.586 71.2734 178.633 72.2269 178.633 73.4031V84.8098C178.633 85.9859 179.586 86.9394 180.762 86.9394H192.864C194.04 86.9394 194.993 85.9859 194.993 84.8098V73.4031C194.993 72.2269 194.04 71.2734 192.864 71.2734Z" fill="#EBEBEB"/>
<path d="M187.882 74.5996H178.633V83.5111H187.882V74.5996Z" fill="#FAFAFA"/>
<path d="M190.524 67.6172H183.093C182.725 67.6172 182.426 67.9159 182.426 68.2844V70.606C182.426 70.9745 182.725 71.2732 183.093 71.2732H190.524C190.892 71.2732 191.191 70.9745 191.191 70.606V68.2844C191.191 67.9159 190.892 67.6172 190.524 67.6172Z" fill="#F5F5F5"/>
<path d="M221.727 71.2734H209.626C208.45 71.2734 207.496 72.2269 207.496 73.4031V84.8098C207.496 85.9859 208.45 86.9394 209.626 86.9394H221.727C222.903 86.9394 223.857 85.9859 223.857 84.8098V73.4031C223.857 72.2269 222.903 71.2734 221.727 71.2734Z" fill="#EBEBEB"/>
<path d="M216.746 74.5996H207.496V83.5111H216.746V74.5996Z" fill="#FAFAFA"/>
<path d="M219.387 67.6172H211.956C211.588 67.6172 211.289 67.9159 211.289 68.2844V70.606C211.289 70.9745 211.588 71.2732 211.956 71.2732H219.387C219.756 71.2732 220.054 70.9745 220.054 70.606V68.2844C220.054 67.9159 219.756 67.6172 219.387 67.6172Z" fill="#F5F5F5"/>
<path d="M221.727 195.668H209.626C208.45 195.668 207.496 196.621 207.496 197.798V209.204C207.496 210.38 208.45 211.334 209.626 211.334H221.727C222.903 211.334 223.857 210.38 223.857 209.204V197.798C223.857 196.621 222.903 195.668 221.727 195.668Z" fill="#EBEBEB"/>
<path d="M216.746 199.004H207.496V207.915H216.746V199.004Z" fill="#FAFAFA"/>
<path d="M219.387 192.012H211.956C211.588 192.012 211.289 192.31 211.289 192.679V195.001C211.289 195.369 211.588 195.668 211.956 195.668H219.387C219.756 195.668 220.054 195.369 220.054 195.001V192.679C220.054 192.31 219.756 192.012 219.387 192.012Z" fill="#F5F5F5"/>
<path d="M250.59 195.668H238.489C237.313 195.668 236.359 196.621 236.359 197.798V209.204C236.359 210.38 237.313 211.334 238.489 211.334H250.59C251.767 211.334 252.72 210.38 252.72 209.204V197.798C252.72 196.621 251.767 195.668 250.59 195.668Z" fill="#EBEBEB"/>
<path d="M245.609 199.004H236.359V207.915H245.609V199.004Z" fill="#FAFAFA"/>
<path d="M248.25 192.012H240.82C240.451 192.012 240.152 192.31 240.152 192.679V195.001C240.152 195.369 240.451 195.668 240.82 195.668H248.25C248.619 195.668 248.918 195.369 248.918 195.001V192.679C248.918 192.31 248.619 192.012 248.25 192.012Z" fill="#F5F5F5"/>
<path d="M279.454 195.668H267.352C266.176 195.668 265.223 196.621 265.223 197.798V209.204C265.223 210.38 266.176 211.334 267.352 211.334H279.454C280.63 211.334 281.583 210.38 281.583 209.204V197.798C281.583 196.621 280.63 195.668 279.454 195.668Z" fill="#EBEBEB"/>
<path d="M274.472 199.004H265.223V207.915H274.472V199.004Z" fill="#FAFAFA"/>
<path d="M277.118 192.012H269.687C269.318 192.012 269.02 192.31 269.02 192.679V195.001C269.02 195.369 269.318 195.668 269.687 195.668H277.118C277.486 195.668 277.785 195.369 277.785 195.001V192.679C277.785 192.31 277.486 192.012 277.118 192.012Z" fill="#F5F5F5"/>
<path d="M308.321 195.668H296.219C295.043 195.668 294.09 196.621 294.09 197.798V209.204C294.09 210.38 295.043 211.334 296.219 211.334H308.321C309.497 211.334 310.45 210.38 310.45 209.204V197.798C310.45 196.621 309.497 195.668 308.321 195.668Z" fill="#EBEBEB"/>
<path d="M303.34 199.004H294.09V207.915H303.34V199.004Z" fill="#FAFAFA"/>
<path d="M305.981 192.012H298.55C298.182 192.012 297.883 192.31 297.883 192.679V195.001C297.883 195.369 298.182 195.668 298.55 195.668H305.981C306.349 195.668 306.648 195.369 306.648 195.001V192.679C306.648 192.31 306.349 192.012 305.981 192.012Z" fill="#F5F5F5"/>
<path d="M337.184 195.668H325.083C323.907 195.668 322.953 196.621 322.953 197.798V209.204C322.953 210.38 323.907 211.334 325.083 211.334H337.184C338.36 211.334 339.314 210.38 339.314 209.204V197.798C339.314 196.621 338.36 195.668 337.184 195.668Z" fill="#EBEBEB"/>
<path d="M332.203 199.004H322.953V207.915H332.203V199.004Z" fill="#FAFAFA"/>
<path d="M334.844 192.012H327.413C327.045 192.012 326.746 192.31 326.746 192.679V195.001C326.746 195.369 327.045 195.668 327.413 195.668H334.844C335.213 195.668 335.511 195.369 335.511 195.001V192.679C335.511 192.31 335.213 192.012 334.844 192.012Z" fill="#F5F5F5"/>
<path d="M136.078 273.541H148.179C149.355 273.541 150.309 272.588 150.309 271.411V260.005C150.309 258.829 149.355 257.875 148.179 257.875H136.078C134.901 257.875 133.948 258.829 133.948 260.005V271.411C133.948 272.588 134.901 273.541 136.078 273.541Z" fill="#EBEBEB"/>
<path d="M141.047 270.113H150.297V261.202H141.047V270.113Z" fill="#FAFAFA"/>
<path d="M138.406 257.867H145.837C146.205 257.867 146.504 257.568 146.504 257.2V254.878C146.504 254.51 146.205 254.211 145.837 254.211H138.406C138.037 254.211 137.739 254.51 137.739 254.878V257.2C137.739 257.568 138.037 257.867 138.406 257.867Z" fill="#F5F5F5"/>
<path d="M107.203 273.541H119.304C120.48 273.541 121.434 272.588 121.434 271.411V260.005C121.434 258.829 120.48 257.875 119.304 257.875H107.203C106.026 257.875 105.073 258.829 105.073 260.005V271.411C105.073 272.588 106.026 273.541 107.203 273.541Z" fill="#EBEBEB"/>
<path d="M112.184 270.113H121.434V261.202H112.184V270.113Z" fill="#FAFAFA"/>
<path d="M109.535 257.867H116.966C117.334 257.867 117.633 257.568 117.633 257.2V254.878C117.633 254.51 117.334 254.211 116.966 254.211H109.535C109.166 254.211 108.868 254.51 108.868 254.878V257.2C108.868 257.568 109.166 257.867 109.535 257.867Z" fill="#F5F5F5"/>
<path d="M78.3393 273.541H90.4407C91.6168 273.541 92.5703 272.588 92.5703 271.411V260.005C92.5703 258.829 91.6168 257.875 90.4407 257.875H78.3393C77.1632 257.875 76.2097 258.829 76.2097 260.005V271.411C76.2097 272.588 77.1632 273.541 78.3393 273.541Z" fill="#EBEBEB"/>
<path d="M83.3206 270.113H92.5703V261.202H83.3206V270.113Z" fill="#FAFAFA"/>
<path d="M80.6715 257.867H88.1023C88.4708 257.867 88.7695 257.568 88.7695 257.2V254.878C88.7695 254.51 88.4708 254.211 88.1023 254.211H80.6715C80.303 254.211 80.0043 254.51 80.0043 254.878V257.2C80.0043 257.568 80.303 257.867 80.6715 257.867Z" fill="#F5F5F5"/>
<path d="M252.445 72.9727H244V86.9386H252.445V72.9727Z" fill="#E0E0E0"/>
<path d="M250.946 76.2266H244V83.6757H250.946V76.2266Z" fill="#F5F5F5"/>
<path d="M252.712 70.7988H243.736C243.358 70.7988 243.051 71.1057 243.051 71.4843V73.0747C243.051 73.4533 243.358 73.7602 243.736 73.7602H252.712C253.09 73.7602 253.397 73.4533 253.397 73.0747V71.4843C253.397 71.1057 253.09 70.7988 252.712 70.7988Z" fill="#F0F0F0"/>
<path d="M271.688 72.9727H263.242V86.9386H271.688V72.9727Z" fill="#E0E0E0"/>
<path d="M270.189 76.2266H263.242V83.6757H270.189V76.2266Z" fill="#F5F5F5"/>
<path d="M271.962 70.7988H262.986C262.608 70.7988 262.301 71.1057 262.301 71.4843V73.0747C262.301 73.4533 262.608 73.7602 262.986 73.7602H271.962C272.34 73.7602 272.647 73.4533 272.647 73.0747V71.4843C272.647 71.1057 272.34 70.7988 271.962 70.7988Z" fill="#F0F0F0"/>
<path d="M290.934 72.9727H282.488V86.9386H290.934V72.9727Z" fill="#E0E0E0"/>
<path d="M289.435 76.2266H282.488V83.6757H289.435V76.2266Z" fill="#F5F5F5"/>
<path d="M291.2 70.7988H282.225C281.846 70.7988 281.539 71.1057 281.539 71.4843V73.0747C281.539 73.4533 281.846 73.7602 282.225 73.7602H291.2C291.579 73.7602 291.886 73.4533 291.886 73.0747V71.4843C291.886 71.1057 291.579 70.7988 291.2 70.7988Z" fill="#F0F0F0"/>
<path d="M310.176 72.9727H301.73V86.9386H310.176V72.9727Z" fill="#E0E0E0"/>
<path d="M308.677 76.2266H301.73V83.6757H308.677V76.2266Z" fill="#F5F5F5"/>
<path d="M310.438 70.7988H301.463C301.084 70.7988 300.777 71.1057 300.777 71.4843V73.0747C300.777 73.4533 301.084 73.7602 301.463 73.7602H310.438C310.817 73.7602 311.124 73.4533 311.124 73.0747V71.4843C311.124 71.1057 310.817 70.7988 310.438 70.7988Z" fill="#F0F0F0"/>
<path d="M114.27 135.172H105.824V149.138H114.27V135.172Z" fill="#E0E0E0"/>
<path d="M112.771 138.434H105.824V145.883H112.771V138.434Z" fill="#F5F5F5"/>
<path d="M114.532 132.996H105.557C105.178 132.996 104.871 133.303 104.871 133.682V135.272C104.871 135.651 105.178 135.957 105.557 135.957H114.532C114.911 135.957 115.218 135.651 115.218 135.272V133.682C115.218 133.303 114.911 132.996 114.532 132.996Z" fill="#F0F0F0"/>
<path d="M133.516 135.172H125.07V149.138H133.516V135.172Z" fill="#E0E0E0"/>
<path d="M132.017 138.434H125.07V145.883H132.017V138.434Z" fill="#F5F5F5"/>
<path d="M133.782 132.996H124.807C124.428 132.996 124.121 133.303 124.121 133.682V135.272C124.121 135.651 124.428 135.957 124.807 135.957H133.782C134.161 135.957 134.468 135.651 134.468 135.272V133.682C134.468 133.303 134.161 132.996 133.782 132.996Z" fill="#F0F0F0"/>
<path d="M152.758 135.172H144.312V149.138H152.758V135.172Z" fill="#E0E0E0"/>
<path d="M151.259 138.434H144.312V145.883H151.259V138.434Z" fill="#F5F5F5"/>
<path d="M153.02 132.996H144.045C143.666 132.996 143.359 133.303 143.359 133.682V135.272C143.359 135.651 143.666 135.957 144.045 135.957H153.02C153.399 135.957 153.706 135.651 153.706 135.272V133.682C153.706 133.303 153.399 132.996 153.02 132.996Z" fill="#F0F0F0"/>
<path d="M171.996 135.172H163.551V149.138H171.996V135.172Z" fill="#E0E0E0"/>
<path d="M170.497 138.434H163.551V145.883H170.497V138.434Z" fill="#F5F5F5"/>
<path d="M172.27 132.996H163.295C162.916 132.996 162.609 133.303 162.609 133.682V135.272C162.609 135.651 162.916 135.957 163.295 135.957H172.27C172.649 135.957 172.956 135.651 172.956 135.272V133.682C172.956 133.303 172.649 132.996 172.27 132.996Z" fill="#F0F0F0"/>
<path d="M324.973 259.576H316.527V273.542H324.973V259.576Z" fill="#E0E0E0"/>
<path d="M323.474 262.83H316.527V270.279H323.474V262.83Z" fill="#F5F5F5"/>
<path d="M325.239 257.4H316.264C315.885 257.4 315.578 257.707 315.578 258.086V259.676C315.578 260.055 315.885 260.362 316.264 260.362H325.239C325.618 260.362 325.925 260.055 325.925 259.676V258.086C325.925 257.707 325.618 257.4 325.239 257.4Z" fill="#F0F0F0"/>
<path d="M344.211 259.576H335.766V273.542H344.211V259.576Z" fill="#E0E0E0"/>
<path d="M342.712 262.83H335.766V270.279H342.712V262.83Z" fill="#F5F5F5"/>
<path d="M344.477 257.4H335.502C335.123 257.4 334.816 257.707 334.816 258.086V259.676C334.816 260.055 335.123 260.362 335.502 260.362H344.477C344.856 260.362 345.163 260.055 345.163 259.676V258.086C345.163 257.707 344.856 257.4 344.477 257.4Z" fill="#F0F0F0"/>
<path d="M363.453 259.576H355.008V273.542H363.453V259.576Z" fill="#E0E0E0"/>
<path d="M361.954 262.83H355.008V270.279H361.954V262.83Z" fill="#F5F5F5"/>
<path d="M363.727 257.4H354.752C354.373 257.4 354.066 257.707 354.066 258.086V259.676C354.066 260.055 354.373 260.362 354.752 260.362H363.727C364.106 260.362 364.413 260.055 364.413 259.676V258.086C364.413 257.707 364.106 257.4 363.727 257.4Z" fill="#F0F0F0"/>
<path d="M382.699 259.576H374.254V273.542H382.699V259.576Z" fill="#E0E0E0"/>
<path d="M381.2 262.83H374.254V270.279H381.2V262.83Z" fill="#F5F5F5"/>
<path d="M382.966 257.4H373.99C373.612 257.4 373.305 257.707 373.305 258.086V259.676C373.305 260.055 373.612 260.362 373.99 260.362H382.966C383.344 260.362 383.651 260.055 383.651 259.676V258.086C383.651 257.707 383.344 257.4 382.966 257.4Z" fill="#F0F0F0"/>
<path d="M256.955 134.797H241.426V149.138H256.955V134.797Z" fill="#F5F5F5"/>
<path d="M256.942 149.127H263.203V134.786H256.942V149.127Z" fill="#E6E6E6"/>
<path d="M241.426 134.797L249.186 141.963L256.955 134.797H241.426Z" fill="#EBEBEB"/>
<path d="M273.525 134.797H257.996V149.138H273.525V134.797Z" fill="#F5F5F5"/>
<path d="M273.513 149.127H279.773V134.786H273.513V149.127Z" fill="#E6E6E6"/>
<path d="M257.996 134.797L265.756 141.963L273.525 134.797H257.996Z" fill="#EBEBEB"/>
<path d="M290.095 134.797H274.566V149.138H290.095V134.797Z" fill="#F5F5F5"/>
<path d="M290.095 149.127H296.355V134.786H290.095V149.127Z" fill="#E6E6E6"/>
<path d="M274.566 134.797L282.326 141.963L290.095 134.797H274.566Z" fill="#EBEBEB"/>
<path d="M264.712 120.455H249.184V134.796H264.712V120.455Z" fill="#F5F5F5"/>
<path d="M264.712 134.787H270.973V120.446H264.712V134.787Z" fill="#E6E6E6"/>
<path d="M249.184 120.455L256.953 127.621L264.712 120.455H249.184Z" fill="#EBEBEB"/>
<path d="M281.283 120.455H265.754V134.796H281.283V120.455Z" fill="#F5F5F5"/>
<path d="M281.282 134.787H287.543V120.446H281.282V134.787Z" fill="#E6E6E6"/>
<path d="M265.754 120.455L273.523 127.621L281.283 120.455H265.754Z" fill="#EBEBEB"/>
<path d="M326.209 134.797H310.68V149.138H326.209V134.797Z" fill="#F5F5F5"/>
<path d="M326.216 149.127H332.477V134.786H326.216V149.127Z" fill="#E6E6E6"/>
<path d="M310.68 134.797L318.449 141.963L326.209 134.797H310.68Z" fill="#EBEBEB"/>
<path d="M342.787 134.797H327.258V149.138H342.787V134.797Z" fill="#F5F5F5"/>
<path d="M342.778 149.127H349.039V134.786H342.778V149.127Z" fill="#E6E6E6"/>
<path d="M327.258 134.797L335.018 141.963L342.787 134.797H327.258Z" fill="#EBEBEB"/>
<path d="M359.357 134.797H343.828V149.138H359.357V134.797Z" fill="#F5F5F5"/>
<path d="M359.348 149.127H365.609V134.786H359.348V149.127Z" fill="#E6E6E6"/>
<path d="M343.828 134.797L351.588 141.963L359.357 134.797H343.828Z" fill="#EBEBEB"/>
<path d="M333.974 120.455H318.445V134.796H333.974V120.455Z" fill="#F5F5F5"/>
<path d="M333.977 134.787H340.238V120.446H333.977V134.787Z" fill="#E6E6E6"/>
<path d="M318.445 120.455L326.205 127.621L333.974 120.455H318.445Z" fill="#EBEBEB"/>
<path d="M350.544 120.455H335.016V134.796H350.544V120.455Z" fill="#F5F5F5"/>
<path d="M350.548 134.787H356.809V120.446H350.548V134.787Z" fill="#E6E6E6"/>
<path d="M335.016 120.455L342.785 127.621L350.544 120.455H335.016Z" fill="#EBEBEB"/>
<path d="M183.697 259.191H168.168V273.532H183.697V259.191Z" fill="#F5F5F5"/>
<path d="M183.696 273.541H189.957V259.2H183.696V273.541Z" fill="#E6E6E6"/>
<path d="M168.168 259.191L175.937 266.366L183.697 259.191H168.168Z" fill="#EBEBEB"/>
<path d="M200.267 259.191H184.738V273.532H200.267V259.191Z" fill="#F5F5F5"/>
<path d="M200.266 273.541H206.527V259.2H200.266V273.541Z" fill="#E6E6E6"/>
<path d="M184.738 259.191L192.507 266.366L200.267 259.191H184.738Z" fill="#EBEBEB"/>
<path d="M216.837 259.191H201.309V273.532H216.837V259.191Z" fill="#F5F5F5"/>
<path d="M216.837 273.541H223.098V259.2H216.837V273.541Z" fill="#E6E6E6"/>
<path d="M201.309 259.191L209.078 266.366L216.837 259.191H201.309Z" fill="#EBEBEB"/>
<path d="M191.455 244.852H175.926V259.192H191.455V244.852Z" fill="#F5F5F5"/>
<path d="M191.466 259.201H197.727V244.861H191.466V259.201Z" fill="#E6E6E6"/>
<path d="M175.938 244.852L183.697 252.026L191.457 244.852H175.938Z" fill="#EBEBEB"/>
<path d="M208.037 244.852H192.508V259.192H208.037V244.852Z" fill="#F5F5F5"/>
<path d="M208.028 259.201H214.289V244.861H208.028V259.201Z" fill="#E6E6E6"/>
<path d="M192.508 244.852L200.268 252.026L208.037 244.852H192.508Z" fill="#EBEBEB"/>
<path d="M252.959 259.191H237.43V273.532H252.959V259.191Z" fill="#F5F5F5"/>
<path d="M252.95 273.541H259.211V259.2H252.95V273.541Z" fill="#E6E6E6"/>
<path d="M237.43 259.191L245.19 266.366L252.959 259.191H237.43Z" fill="#EBEBEB"/>
<path d="M269.529 259.191H254V273.532H269.529V259.191Z" fill="#F5F5F5"/>
<path d="M269.528 273.541H275.789V259.2H269.528V273.541Z" fill="#E6E6E6"/>
<path d="M254 259.191L261.76 266.366L269.529 259.191H254Z" fill="#EBEBEB"/>
<path d="M286.099 259.191H270.57V273.532H286.099V259.191Z" fill="#F5F5F5"/>
<path d="M286.098 273.541H292.359V259.2H286.098V273.541Z" fill="#E6E6E6"/>
<path d="M270.57 259.191L278.33 266.366L286.099 259.191H270.57Z" fill="#EBEBEB"/>
<path d="M260.72 244.852H245.191V259.192H260.72V244.852Z" fill="#F5F5F5"/>
<path d="M260.72 259.201H266.98V244.861H260.72V259.201Z" fill="#E6E6E6"/>
<path d="M245.191 244.852L252.96 252.026L260.72 244.852H245.191Z" fill="#EBEBEB"/>
<path d="M277.291 244.852H261.762V259.192H277.291V244.852Z" fill="#F5F5F5"/>
<path d="M277.298 259.201H283.559V244.861H277.298V259.201Z" fill="#E6E6E6"/>
<path d="M261.762 244.852L269.531 252.026L277.291 244.852H261.762Z" fill="#EBEBEB"/>
<path d="M103.072 194.381H84.7188V211.336H103.072V194.381Z" fill="#F5F5F5"/>
<path d="M103.073 211.334H110.477V194.379H103.073V211.334Z" fill="#E6E6E6"/>
<path d="M84.7188 194.381L93.8953 202.863L103.081 194.381H84.7188Z" fill="#EBEBEB"/>
<path d="M122.658 194.381H104.305V211.336H122.658V194.381Z" fill="#F5F5F5"/>
<path d="M122.659 211.334H130.062V194.379H122.659V211.334Z" fill="#E6E6E6"/>
<path d="M104.316 194.381L113.493 202.863L122.67 194.381H104.316Z" fill="#EBEBEB"/>
<path d="M142.255 194.381H123.902V211.336H142.255V194.381Z" fill="#F5F5F5"/>
<path d="M142.257 211.334H149.66V194.379H142.257V211.334Z" fill="#E6E6E6"/>
<path d="M123.902 194.381L133.079 202.863L142.255 194.381H123.902Z" fill="#EBEBEB"/>
<path d="M112.248 177.426H93.8945V194.38H112.248V177.426Z" fill="#F5F5F5"/>
<path d="M112.249 194.389H119.652V177.434H112.249V194.389Z" fill="#E6E6E6"/>
<path d="M93.8945 177.426L103.08 185.908L112.257 177.426H93.8945Z" fill="#EBEBEB"/>
<path d="M131.845 177.426H113.492V194.38H131.845V177.426Z" fill="#F5F5F5"/>
<path d="M131.843 194.389H139.246V177.434H131.843V194.389Z" fill="#E6E6E6"/>
<path d="M113.492 177.426L122.669 185.908L131.845 177.426H113.492Z" fill="#EBEBEB"/>
<path d="M339.652 75.3594H327.121V86.9306H339.652V75.3594Z" fill="#F5F5F5"/>
<path d="M339.653 86.9395H344.707V75.3682H339.653V86.9395Z" fill="#E6E6E6"/>
<path d="M327.121 75.3594L333.382 81.145L339.652 75.3594H327.121Z" fill="#EBEBEB"/>
<path d="M353.023 75.3594H340.492V86.9306H353.023V75.3594Z" fill="#F5F5F5"/>
<path d="M353.024 86.9395H358.078V75.3682H353.024V86.9395Z" fill="#E6E6E6"/>
<path d="M340.492 75.3594L346.753 81.145L353.023 75.3594H340.492Z" fill="#EBEBEB"/>
<path d="M366.394 75.3594H353.863V86.9306H366.394V75.3594Z" fill="#F5F5F5"/>
<path d="M366.395 86.9395H371.449V75.3682H366.395V86.9395Z" fill="#E6E6E6"/>
<path d="M353.863 75.3594L360.133 81.145L366.394 75.3594H353.863Z" fill="#EBEBEB"/>
<path d="M345.914 63.7871H333.383V75.3583H345.914V63.7871Z" fill="#F5F5F5"/>
<path d="M345.922 75.3672H350.977V63.796H345.922V75.3672Z" fill="#E6E6E6"/>
<path d="M333.383 63.7871L339.653 69.5727L345.914 63.7871H333.383Z" fill="#EBEBEB"/>
<path d="M359.293 63.7871H346.762V75.3583H359.293V63.7871Z" fill="#F5F5F5"/>
<path d="M359.293 75.3672H364.348V63.796H359.293V75.3672Z" fill="#E6E6E6"/>
<path d="M346.754 63.7871L353.024 69.5727L359.294 63.7871H346.754Z" fill="#EBEBEB"/>
<path d="M68.04 250.838L64.384 251.478C61.0387 253.79 64.256 258.662 64.256 258.662L65.0512 261.751C65.1571 262.241 65.446 262.671 65.8588 262.955C66.2716 263.239 66.7772 263.354 67.2722 263.277L69.8131 262.857C70.3916 262.729 70.9009 262.389 71.2396 261.903C71.5783 261.416 71.7216 260.821 71.6411 260.234L71.3121 257.428C71.2185 256.632 70.9635 255.864 70.5626 255.17L68.04 250.838Z" fill="#FFC3BD"/>
<path d="M86.0817 203.822L82.5628 210.111L79.0622 216.436L75.6895 222.779L74.09 225.941L73.3223 227.504L73.1303 227.897L73.0389 228.089C73.0389 228.18 73.0389 228.089 73.0389 228.144H72.9841H72.8927C72.8927 228.144 72.8927 228.144 72.8927 228.235V232.924C72.8927 235.428 72.8927 237.933 72.8927 240.437L72.7464 247.941C72.655 250.446 72.5911 252.95 72.454 255.454L61.0107 256.003C60.5811 253.562 60.2246 251.122 59.8499 248.691L58.8354 241.379C58.5246 238.938 58.2047 236.498 57.9214 234.067L57.5009 230.411L57.3912 229.497C57.21 227.689 57.3273 225.864 57.7386 224.095C57.8846 223.504 58.0615 222.921 58.2687 222.349L58.6617 221.271L59.3563 219.443C59.8316 218.227 60.3252 217.021 60.8187 215.787C61.815 213.401 62.8478 211.061 63.9355 208.758C66.0834 204.115 68.3044 199.618 70.7996 195.121L86.0817 203.822Z" fill="#04447B"/>
<g opacity="0.2">
<path d="M86.0817 203.822L82.5628 210.111L79.0622 216.436L75.6895 222.779L74.09 225.941L73.3223 227.504L73.1303 227.897L73.0389 228.089C73.0389 228.18 73.0389 228.089 73.0389 228.144H72.9841H72.8927C72.8927 228.144 72.8927 228.144 72.8927 228.235V232.924C72.8927 235.428 72.8927 237.933 72.8927 240.437L72.7464 247.941C72.655 250.446 72.5911 252.95 72.454 255.454L61.0107 256.003C60.5811 253.562 60.2246 251.122 59.8499 248.691L58.8354 241.379C58.5246 238.938 58.2047 236.498 57.9214 234.067L57.5009 230.411L57.3912 229.497C57.21 227.689 57.3273 225.864 57.7386 224.095C57.8846 223.504 58.0615 222.921 58.2687 222.349L58.6617 221.271L59.3563 219.443C59.8316 218.227 60.3252 217.021 60.8187 215.787C61.815 213.401 62.8478 211.061 63.9355 208.758C66.0834 204.115 68.3044 199.618 70.7996 195.121L86.0817 203.822Z" fill="white"/>
</g>
<path d="M121.81 377.152C115.412 376.659 112.03 372.28 112.185 367.637C112.277 365.078 104.087 364.85 104.087 364.85C105.915 372.783 104.325 373.916 103.923 375.964C103.521 378.011 103.786 380.278 105.477 380.324C107.506 380.369 108.429 379.985 110.961 380.077C113.913 380.196 115.896 380.314 121.133 380.324C123.217 380.324 124.662 377.371 121.81 377.152Z" fill="#04447B"/>
<path d="M74.5365 377.326C70.3869 375.919 70.1767 371.623 70.7251 367.199C71.0541 364.585 62.9104 365.088 62.9104 365.088C62.3163 371.403 61.1646 371.65 60.0678 373.57C58.971 375.489 58.9162 377.582 60.4974 378.14C62.3894 378.834 63.4405 378.642 65.8992 379.054C68.7874 379.565 71.3832 380.269 74.9021 380.269C76.9951 380.324 77.1962 378.231 74.5365 377.326Z" fill="#04447B"/>
<path d="M115.658 238.463C115.658 238.463 119.615 270.736 115.959 298.787C116.151 322.478 112.76 368.763 112.76 368.763C109.968 369.424 107.057 369.396 104.278 368.68C104.278 368.68 91.6926 336.444 94.9373 298.385C82.9913 260.234 83.8413 239.669 83.8413 239.669L115.658 238.463Z" fill="#1A2226"/>
<path d="M103.084 238.92C103.084 238.92 96.5854 285.223 89.4653 307.287C81.9796 330.457 71.295 366.514 71.0025 368.224C67.6847 368.534 64.6045 368.47 62.1276 367.401C62.1276 367.401 58.2431 326.819 67.8126 301.666C70.2256 249.148 75.8558 239.907 75.8558 239.907L103.084 238.92Z" fill="#1A2226"/>
<path d="M85.25 176.182C86.5296 180.633 87.8823 187.917 86.2554 191.875C86.2554 191.875 92.1964 191.957 100.879 198.401C104.654 192.405 100.697 191.4 100.697 191.4C97.1411 190.705 96.4282 186.437 96.3094 183.101L85.25 176.182Z" fill="#FFC3BD"/>
<path d="M114.253 202.295C114.253 196.875 110.496 193.054 103.586 191.82C97.1883 190.678 88.3043 190.513 82.4364 192.305C76.5685 194.096 74.8502 197.387 75.9561 201.865C80.7363 221.196 75.0421 233.855 75.883 239.906C90.507 241.304 112.525 240.966 115.688 238.462C117.808 235.4 114.71 218.811 113.522 216.398C119.225 212.129 114.253 205.32 114.253 202.295Z" fill="#04447B"/>
<path d="M101.273 167.856C101.41 168.459 101.831 168.871 102.187 168.77C102.544 168.67 102.791 168.13 102.663 167.536C102.535 166.942 102.114 166.522 101.749 166.622C101.383 166.723 101.145 167.262 101.273 167.856Z" fill="#1A2226"/>
<path d="M101.582 166.695L102.926 165.973C102.926 165.973 102.432 167.261 101.582 166.695Z" fill="#1A2226"/>
<path d="M101.746 169.016C102.567 170.264 103.558 171.393 104.689 172.37C104.433 172.653 104.117 172.877 103.765 173.025C103.413 173.173 103.033 173.243 102.651 173.229L101.746 169.016Z" fill="#ED847E"/>
<path d="M101.639 173.129C99.7107 173.129 98.1295 170.451 98.1112 167.152C98.0583 165.696 98.3726 164.25 99.0252 162.947C99.2421 162.447 99.5886 162.014 100.029 161.693C100.469 161.371 100.987 161.173 101.53 161.119C103.449 161.119 105.03 163.797 105.058 167.097C105.095 168.555 104.761 169.998 104.089 171.292C103.874 171.794 103.528 172.228 103.088 172.55C102.647 172.872 102.128 173.069 101.584 173.12L101.639 173.129ZM101.639 161.585C101.177 161.638 100.738 161.813 100.367 162.093C99.9956 162.372 99.7059 162.746 99.5279 163.176C98.8916 164.402 98.5771 165.77 98.6139 167.152C98.6139 170.195 100.012 172.636 101.685 172.636C102.146 172.58 102.584 172.404 102.955 172.125C103.325 171.845 103.616 171.473 103.796 171.045C104.433 169.819 104.747 168.451 104.71 167.069C104.646 164.062 103.284 161.585 101.594 161.585H101.639Z" fill="#1A2226"/>
<path d="M101.913 164.181C101.969 164.108 101.995 164.017 101.986 163.925C101.98 163.878 101.966 163.833 101.942 163.792C101.919 163.751 101.888 163.715 101.85 163.686C101.813 163.657 101.77 163.636 101.724 163.623C101.679 163.611 101.631 163.608 101.584 163.615C101.019 163.67 100.475 163.86 99.998 164.169C99.521 164.477 99.1247 164.895 98.842 165.388C98.8149 165.471 98.8189 165.562 98.8531 165.643C98.8873 165.724 98.9494 165.789 99.0282 165.828C99.1069 165.867 99.197 165.876 99.282 165.854C99.3669 165.832 99.4411 165.78 99.4909 165.708C99.7166 165.318 100.033 164.99 100.414 164.749C100.794 164.509 101.227 164.364 101.675 164.328C101.77 164.311 101.856 164.259 101.913 164.181Z" fill="#1A2226"/>
<path d="M81.5026 171.073C83.5134 178.312 84.2446 181.419 88.6592 184.399C95.3405 188.887 103.603 184.847 103.749 177.169C103.877 170.25 100.559 159.575 92.891 158.176C85.2225 156.778 79.5192 163.843 81.5026 171.073Z" fill="#FFC3BD"/>
<path d="M70.8533 194.681C74.8474 189.334 93.0452 188.84 106.682 190.961C120.319 193.081 119.103 206.59 119.396 215.84C119.688 225.09 122.924 290.203 118.774 314.717C99.9002 317.916 70.0124 316.088 61.3477 313.199C63.1757 304.361 69.9118 236.835 70.0124 219.368C70.0581 210.831 66.6397 200.32 70.8533 194.681Z" fill="#04447B"/>
<path opacity="0.3" d="M70.8533 194.681C74.8474 189.334 93.0452 188.84 106.682 190.961C120.319 193.081 119.103 206.59 119.396 215.84C119.688 225.09 122.924 290.203 118.774 314.717C99.9002 317.916 70.0124 316.088 61.3477 313.199C63.1757 304.361 69.9118 236.835 70.0124 219.368C70.0581 210.831 66.6397 200.32 70.8533 194.681Z" fill="white"/>
<path opacity="0.5" d="M119.78 225.693C116.645 222.731 113.893 219.825 112.879 217.924C109.223 211.115 115.703 230.245 120.291 239.997C120.118 234.559 119.935 229.678 119.78 225.693Z" fill="#04447B"/>
<path d="M141.8 223.701L141.324 227.357C142.522 231.242 148.134 229.633 148.134 229.633L151.323 229.807C151.822 229.855 152.321 229.71 152.717 229.403C153.113 229.095 153.376 228.648 153.453 228.153L153.809 225.602C153.864 225.012 153.694 224.422 153.333 223.951C152.972 223.48 152.447 223.163 151.863 223.062L149.121 222.531C148.334 222.362 147.521 222.362 146.735 222.531L141.8 223.701Z" fill="#FFC3BD"/>
<path d="M140.805 224.121C142.358 221.379 145.832 221.525 148.473 220.977C148.921 220.876 149.753 221.754 149.259 222.293C148.955 222.668 148.578 222.977 148.15 223.202C147.723 223.426 147.254 223.562 146.773 223.6C146.773 224.596 145.548 227.192 142.139 226.89C141.346 226.18 140.866 225.184 140.805 224.121Z" fill="#FFC3BD"/>
<path d="M116.5 197.424L117.798 200.02L119.196 202.698C120.11 204.48 121.079 206.253 122.066 207.999C123.053 209.745 124.068 211.435 125.092 213.108C125.603 213.949 126.134 214.753 126.655 215.558C126.92 215.969 127.185 216.353 127.459 216.746L127.852 217.331L128.053 217.623L128.117 217.724C128.422 218.266 128.875 218.71 129.424 219.003C130.063 219.242 130.724 219.417 131.398 219.524C132.312 219.698 133.226 219.844 134.14 219.972C136.023 220.246 137.997 220.429 139.99 220.585C140.986 220.649 141.991 220.731 142.997 220.786L145.949 220.923L147.201 232.311C145.977 232.585 144.925 232.786 143.783 232.978C142.64 233.17 141.544 233.353 140.41 233.49C138.153 233.783 135.84 233.975 133.482 234.048C132.303 234.048 131.097 234.048 129.826 234.048C129.214 234.048 128.574 233.984 127.934 233.929C127.116 233.868 126.303 233.746 125.503 233.563C121.906 232.746 118.64 230.86 116.134 228.153L115.385 227.302L114.809 226.635C114.416 226.187 114.023 225.721 113.657 225.283C112.899 224.369 112.195 223.455 111.491 222.541C110.093 220.713 108.749 218.885 107.534 216.956C106.318 215.027 105.066 213.172 103.878 211.234C103.32 210.266 102.753 209.288 102.205 208.31C101.657 207.332 101.154 206.363 100.578 205.22L116.5 197.424Z" fill="#04447B"/>
<g opacity="0.3">
<path d="M116.5 197.424L117.798 200.02L119.196 202.698C120.11 204.48 121.079 206.253 122.066 207.999C123.053 209.745 124.068 211.435 125.092 213.108C125.603 213.949 126.134 214.753 126.655 215.558C126.92 215.969 127.185 216.353 127.459 216.746L127.852 217.331L128.053 217.623L128.117 217.724C128.422 218.266 128.875 218.71 129.424 219.003C130.063 219.242 130.724 219.417 131.398 219.524C132.312 219.698 133.226 219.844 134.14 219.972C136.023 220.246 137.997 220.429 139.99 220.585C140.986 220.649 141.991 220.731 142.997 220.786L145.949 220.923L147.201 232.311C145.977 232.585 144.925 232.786 143.783 232.978C142.64 233.17 141.544 233.353 140.41 233.49C138.153 233.783 135.84 233.975 133.482 234.048C132.303 234.048 131.097 234.048 129.826 234.048C129.214 234.048 128.574 233.984 127.934 233.929C127.116 233.868 126.303 233.746 125.503 233.563C121.906 232.746 118.64 230.86 116.134 228.153L115.385 227.302L114.809 226.635C114.416 226.187 114.023 225.721 113.657 225.283C112.899 224.369 112.195 223.455 111.491 222.541C110.093 220.713 108.749 218.885 107.534 216.956C106.318 215.027 105.066 213.172 103.878 211.234C103.32 210.266 102.753 209.288 102.205 208.31C101.657 207.332 101.154 206.363 100.578 205.22L116.5 197.424Z" fill="white"/>
</g>
<path opacity="0.5" d="M92.664 238.782C92.664 238.782 80.0051 237.923 76.3125 236.141C80.7637 239.102 86.8326 239.468 92.664 238.782Z" fill="#04447B"/>
<path opacity="0.5" d="M91.2385 239.979C91.2385 239.979 81.9157 240.455 79 239.477C82.6194 241.241 87.1163 241.003 91.2385 239.979Z" fill="#04447B"/>
<path d="M93.2281 154.978C78.7046 148.68 65.8081 154.329 70.5791 164.757C75.3502 175.186 64.3822 177.197 62.3531 188.997C60.3241 200.796 64.9306 209.406 76.9771 213.163C92.4512 217.989 106.691 215.804 105.814 201.281C104.936 186.757 96.3996 176.923 98.8217 169.912C101.244 162.902 103.145 152.638 93.2281 154.978Z" fill="#1A2226"/>
<path d="M97.2316 170.159H97.1585C97.1016 170.138 97.0551 170.096 97.0294 170.041C97.0037 169.986 97.0008 169.923 97.0214 169.866C97.5241 168.486 104.05 166.439 104.79 166.21C104.849 166.193 104.911 166.2 104.964 166.229C105.017 166.258 105.057 166.308 105.074 166.366C105.091 166.423 105.086 166.484 105.058 166.537C105.031 166.59 104.984 166.63 104.928 166.649C102.186 167.49 97.7709 169.153 97.451 170.031C97.4295 170.07 97.3977 170.103 97.359 170.125C97.3204 170.148 97.2764 170.159 97.2316 170.159Z" fill="#1A2226"/>
<path d="M95.7872 173.432C96.0257 174.112 96.4115 174.731 96.9172 175.244C97.4228 175.758 98.0357 176.153 98.712 176.402C100.375 176.887 101.207 174.775 100.741 172.673C100.321 170.781 98.913 168.24 97.277 168.706C95.6409 169.173 95.056 171.586 95.7872 173.432Z" fill="#FFC3BD"/>
<path opacity="0.1" d="M321.73 375.453C323.382 374.327 324.913 373.035 326.3 371.595H275.326L272.858 325.384H334.224V321.527H272.648L270.171 275.296H334.224V271.458H269.97L267.493 225.227H334.215V221.37H267.292L264.815 175.14H302.737V171.283H264.605L262.53 132.42H256.434L269.705 380.47H275.801L275.536 375.489L321.73 375.453Z" fill="#1A2226"/>
<path d="M333.832 109.188L335.404 118.328H264.149L262.577 109.188H256.48L303.177 381.761H309.273L307.701 372.621H378.993L380.565 381.761H386.625L339.929 109.188H333.832ZM336.062 122.185L343.987 168.415H272.695L264.77 122.185H336.062ZM289.869 268.589L281.945 222.359H353.237L361.161 268.589H289.869ZM361.819 272.446L369.743 318.676H298.451L290.527 272.446H361.819ZM281.277 218.52L273.353 172.29H344.645L352.569 218.52H281.277ZM307.043 368.782L299.119 322.552H370.411L378.335 368.782H307.043Z" fill="#1A2226"/>
<path d="M330.448 110.685C331.065 109.164 332.18 107.898 333.611 107.093C334.052 105.583 333.948 103.965 333.318 102.523L349.77 95.6133C348.911 101.326 348.244 105.841 350.565 108.409C347.421 110.74 341.663 114.926 335.027 115.337C328.392 115.749 329.58 113.126 330.448 110.685Z" fill="#B55B52"/>
<path d="M329.645 87.7441L329.745 93.3013C329.745 93.3013 327.634 93.8222 326.363 92.89C326.977 90.9121 328.11 89.1352 329.645 87.7441Z" fill="#A02724"/>
<path d="M329.737 86.9758C329.673 87.6339 329.27 88.1275 328.823 88.0818C328.375 88.0361 328.101 87.4694 328.155 86.8113C328.21 86.1532 328.622 85.6505 329.069 85.6962C329.517 85.7419 329.801 86.3178 329.737 86.9758Z" fill="#1A2226"/>
<path d="M329.042 81.7944C329.053 81.8572 329.08 81.9161 329.119 81.9657C329.159 82.0153 329.211 82.0538 329.27 82.0778C329.728 82.2425 330.14 82.5156 330.469 82.8737C330.798 83.2318 331.036 83.6643 331.162 84.1343C331.172 84.1843 331.192 84.2318 331.22 84.2742C331.249 84.3165 331.285 84.3528 331.328 84.3809C331.37 84.4089 331.418 84.4283 331.468 84.4377C331.518 84.4471 331.57 84.4465 331.619 84.4359C331.669 84.4261 331.717 84.4064 331.759 84.378C331.802 84.3497 331.838 84.3131 331.866 84.2706C331.894 84.2281 331.913 84.1804 331.923 84.1303C331.932 84.0802 331.932 84.0287 331.921 83.9789C331.769 83.3797 331.474 82.8267 331.059 82.3679C330.645 81.9091 330.125 81.5585 329.545 81.3465C329.479 81.3223 329.408 81.3161 329.339 81.3285C329.27 81.3409 329.206 81.3716 329.152 81.4172C329.099 81.4629 329.059 81.522 329.037 81.5883C329.014 81.6546 329.01 81.7258 329.024 81.7944H329.042Z" fill="#1A2226"/>
<path d="M352.248 86.7569C350.986 94.7909 349.953 100.22 344.936 103.209C334.973 109.113 329.791 104.178 328.621 95.8969C327.57 88.4478 329.809 76.5566 338.035 74.1619C339.856 73.6293 341.782 73.5674 343.634 73.9819C345.485 74.3965 347.201 75.274 348.621 76.5324C350.041 77.7907 351.119 79.3888 351.753 81.177C352.387 82.9652 352.557 84.885 352.248 86.7569Z" fill="#B55B52"/>
<path d="M335.118 90.4038C331.462 89.5995 330.356 85.6053 332.614 84.0972C331.115 80.8434 328.958 80.2676 329.013 76.4196C329.068 72.5717 333.062 67.9651 341.352 68.6963C340.209 69.3361 339.03 69.912 339.03 69.912C339.03 69.912 345.428 68.8426 350.62 71.8679C355.811 74.8933 358.727 73.0378 358.727 73.0378C358.691 73.5758 358.51 74.0939 358.203 74.5367C357.895 74.9795 357.473 75.3302 356.981 75.5513C358.306 76.2368 361.469 82.5526 356.597 87.9635C351.726 93.3743 350.062 96.9664 351.762 99.1325C349.322 101.71 343.536 101.555 339.752 99.489C335.968 97.4234 335.118 90.4038 335.118 90.4038Z" fill="#1A2226"/>
<path d="M339.597 89.4808C339.327 90.3186 338.894 91.0948 338.323 91.7646C337.752 92.4344 337.054 92.9846 336.27 93.3836C334.168 94.4438 332.614 92.6615 332.833 90.4405C333.016 88.448 334.323 85.4866 336.626 85.3586C337.13 85.3356 337.632 85.4384 338.086 85.6579C338.54 85.8775 338.932 86.2067 339.227 86.6159C339.522 87.0251 339.71 87.5013 339.775 88.0015C339.839 88.5017 339.778 89.0101 339.597 89.4808Z" fill="#B55B52"/>
<path d="M328.02 299.408L340.413 299.527L339.947 314.142L329.592 314.06L328.02 299.408Z" fill="#B55B52"/>
<path opacity="0.2" d="M328.027 299.408L340.412 299.527L340.147 307.716L328.905 307.616L328.027 299.408Z" fill="black"/>
<path d="M341.169 241.187C345.493 221.993 352.649 201.647 345.109 184.391L310.688 187.37C310.688 187.37 314.097 228.299 315.02 245.601C315.934 263.58 327.642 305.075 327.642 305.075H341.818C341.818 305.075 344.021 261.094 341.169 241.187Z" fill="#04447B"/>
<path d="M341.921 318.666H338.658L337.863 317.57L336.51 318.675H318.23C318.057 317.414 318.227 316.128 318.723 314.955C318.723 314.955 325.057 313.923 327.516 312.213C327.723 312.067 327.959 311.966 328.207 311.915C328.456 311.865 328.712 311.867 328.96 311.921C331.172 312.341 337.022 313.292 340.184 312.058C340.263 312.036 340.345 312.032 340.425 312.046C340.506 312.059 340.582 312.09 340.649 312.136C340.716 312.182 340.772 312.243 340.814 312.313C340.855 312.383 340.88 312.461 340.888 312.543C341.073 314.607 341.418 316.655 341.921 318.666Z" fill="#1A2226"/>
<path d="M381.074 283.779L392.554 279.1L398.696 292.38L389.108 296.301L381.074 283.779Z" fill="#B55B52"/>
<path opacity="0.2" d="M381.074 283.778L392.563 279.107L396 286.538L385.58 290.788L381.074 283.778Z" fill="black"/>
<path d="M379.888 237.686C379.194 218.912 378.06 190.834 370.986 182.846L332.461 185.469C332.461 185.469 346.856 225.402 352.404 242.283C358.172 259.823 383.334 289.043 383.334 289.043L395.71 283.907C395.71 283.907 386.835 258.552 379.888 237.686Z" fill="#04447B"/>
<path d="M324.872 109.195C336.188 107.072 347.705 106.214 359.211 106.636C360.789 106.725 362.332 107.135 363.746 107.842C365.16 108.548 366.415 109.536 367.434 110.744C368.453 111.952 369.214 113.355 369.672 114.868C370.13 116.381 370.275 117.971 370.097 119.541C367.19 146.879 372.747 179.015 372.683 184.371C372.683 184.371 322.477 205.037 309.051 189.38C302.561 156.805 311.893 128.425 316.253 116.562C316.936 114.697 318.088 113.039 319.598 111.749C321.107 110.459 322.924 109.579 324.872 109.195Z" fill="#04447B"/>
<path opacity="0.1" d="M341.172 241.186C341.538 243.691 341.812 246.579 342.022 249.714C333.306 251.2 324.477 251.922 315.635 251.871C315.333 249.586 315.123 247.484 315.022 245.628C314.885 243.051 314.693 239.952 314.465 236.543C323.748 237.005 333.05 236.92 342.324 236.287C341.921 237.926 341.538 239.559 341.172 241.186Z" fill="#1A2226"/>
<path opacity="0.1" d="M380.224 238.672C373.872 241.707 364.741 244.805 354.404 247.237C353.643 245.612 352.975 243.946 352.402 242.246C351.771 240.327 351.022 238.097 350.199 235.675C360.081 234.783 369.908 233.367 379.639 231.434C379.731 233.6 379.813 235.693 379.886 237.685L380.224 238.672Z" fill="#1A2226"/>
<path d="M382.537 231.845C375.225 239.157 344.852 248.206 321.107 244.532C319.711 241.478 318.601 238.302 317.789 235.044C317.225 237.912 316.98 240.833 317.058 243.755C314.627 243.213 312.243 242.479 309.928 241.561C308.311 229.149 304.125 180.698 306.017 154.786C307.908 128.874 316.473 112.55 318.228 111.334C319.982 110.119 331.691 106.764 345.145 105.786C357.438 104.872 368.397 107.88 370.527 111.536C374.027 117.02 371.331 157.491 372.684 170.032C374.036 182.572 381.458 212.149 382.537 231.845Z" fill="#04447B"/>
<path opacity="0.3" d="M382.537 231.845C375.225 239.157 344.852 248.206 321.107 244.532C319.711 241.478 318.601 238.302 317.789 235.044C317.225 237.912 316.98 240.833 317.058 243.755C314.627 243.213 312.243 242.479 309.928 241.561C308.311 229.149 304.125 180.698 306.017 154.786C307.908 128.874 316.473 112.55 318.228 111.334C319.982 110.119 331.691 106.764 345.145 105.786C357.438 104.872 368.397 107.88 370.527 111.536C374.027 117.02 371.331 157.491 372.684 170.032C374.036 182.572 381.458 212.149 382.537 231.845Z" fill="white"/>
<path d="M402.647 293.093L400.609 294.857L399.339 294.501L398.991 296.265L386.698 306.894C385.786 305.995 385.129 304.869 384.797 303.631C384.797 303.631 388.179 300.113 388.014 297.06C388.002 296.946 388.023 296.831 388.075 296.729C388.127 296.626 388.208 296.541 388.307 296.484C389.751 295.68 395.418 292.389 397.264 289.117C397.308 289.039 397.369 288.973 397.443 288.923C397.518 288.873 397.602 288.841 397.691 288.829C397.78 288.817 397.87 288.827 397.954 288.856C398.039 288.886 398.115 288.934 398.178 288.998C399.561 290.475 401.055 291.844 402.647 293.093Z" fill="#1A2226"/>
<path d="M273.114 146.515L273.333 151.734C271.615 156.935 265.308 153.562 265.308 153.562L261.652 153.16C261.005 153.053 260.418 152.717 259.997 152.214C259.576 151.711 259.349 151.074 259.358 150.418L259.175 146.762C259.089 146.014 259.299 145.263 259.761 144.669C260.222 144.074 260.897 143.684 261.643 143.581L264.869 143.398C265.812 143.343 266.754 143.522 267.611 143.919L273.114 146.515Z" fill="#B55B52"/>
<path d="M274.202 147.301C272.667 143.087 268.655 142.667 265.666 141.36C265.154 141.14 264.121 142.191 264.651 143.05C264.927 143.604 265.312 144.096 265.783 144.497C266.254 144.898 266.802 145.198 267.393 145.381C267.311 146.78 268.481 150.664 272.429 150.911C273.443 149.965 274.074 148.681 274.202 147.301Z" fill="#B55B52"/>
<path opacity="0.5" d="M308.933 135.025C307.439 141.525 306.452 148.132 305.981 154.785C305.92 155.644 305.865 156.531 305.816 157.445C312.269 151.559 316.528 142.465 316.538 136.789C316.574 134.028 312.854 133.224 308.933 135.025Z" fill="#04447B"/>
<path opacity="0.5" d="M347.113 170.004C347.113 170.004 362.295 168.761 366.719 166.146C361.381 170.488 354.069 171.064 347.113 170.004Z" fill="#04447B"/>
<path opacity="0.5" d="M348.828 171.777C348.828 171.777 360.006 172.472 363.498 171.037C359.202 173.66 353.773 173.276 348.828 171.777Z" fill="#04447B"/>
<path d="M332.742 125.438C330.667 127.668 328.565 129.789 326.463 131.955C324.361 134.121 322.194 136.205 320.065 138.353C315.778 142.594 311.382 146.734 306.812 150.856L304.929 152.547L303.265 153.013C300.416 153.755 297.513 154.274 294.582 154.567C291.84 154.887 289.236 155.07 286.622 155.207C284.007 155.344 281.403 155.417 278.807 155.426C276.211 155.436 273.652 155.426 270.992 155.271L270.078 142.164L277.39 140.684C279.812 140.199 282.234 139.706 284.62 139.194C287.005 138.682 289.364 138.143 291.63 137.585C293.69 137.106 295.717 136.495 297.699 135.757L294.144 137.914L306.026 124.826L311.994 118.217C314.005 116.033 316.007 113.812 318.017 111.664L332.742 125.438Z" fill="#04447B"/>
<g opacity="0.3">
<path d="M332.742 125.438C330.667 127.668 328.565 129.789 326.463 131.955C324.361 134.121 322.194 136.205 320.065 138.353C315.778 142.594 311.382 146.734 306.812 150.856L304.929 152.547L303.265 153.013C300.416 153.755 297.513 154.274 294.582 154.567C291.84 154.887 289.236 155.07 286.622 155.207C284.007 155.344 281.403 155.417 278.807 155.426C276.211 155.436 273.652 155.426 270.992 155.271L270.078 142.164L277.39 140.684C279.812 140.199 282.234 139.706 284.62 139.194C287.005 138.682 289.364 138.143 291.63 137.585C293.69 137.106 295.717 136.495 297.699 135.757L294.144 137.914L306.026 124.826L311.994 118.217C314.005 116.033 316.007 113.812 318.017 111.664L332.742 125.438Z" fill="white"/>
</g>
<path d="M207.172 274.592H142.59C133.501 274.592 126.133 281.502 126.133 290.027V368.663C126.133 377.188 133.501 384.098 142.59 384.098H207.172C216.261 384.098 223.629 377.188 223.629 368.663V290.027C223.629 281.502 216.261 274.592 207.172 274.592Z" fill="#04447B"/>
<path d="M205.541 267.59H144.219V284.827H205.541V267.59Z" fill="#04447B"/>
<path opacity="0.3" d="M205.541 270.215L144.219 271.914V267.59H205.541V270.215Z" fill="#04447B"/>
<path d="M207.978 250.436H141.788C140.973 250.436 140.312 251.055 140.312 251.819V267.244C140.312 268.009 140.973 268.628 141.788 268.628H207.978C208.793 268.628 209.453 268.009 209.453 267.244V251.819C209.453 251.055 208.793 250.436 207.978 250.436Z" fill="#04447B"/>
<path opacity="0.6" d="M207.978 250.436H141.788C140.973 250.436 140.312 251.055 140.312 251.819V267.244C140.312 268.009 140.973 268.628 141.788 268.628H207.978C208.793 268.628 209.453 268.009 209.453 267.244V251.819C209.453 251.055 208.793 250.436 207.978 250.436Z" fill="white"/>
<path opacity="0.9" d="M161.577 299.547H223.629V359.41H161.577C160.462 359.41 159.358 359.204 158.328 358.803C157.297 358.403 156.361 357.817 155.573 357.077C154.784 356.338 154.159 355.46 153.732 354.494C153.306 353.527 153.086 352.492 153.086 351.446V307.506C153.087 305.394 153.983 303.37 155.575 301.878C157.167 300.385 159.326 299.547 161.577 299.547Z" fill="white"/>
<path opacity="0.9" d="M133.224 359.41H126.135V299.547H133.224C135.476 299.547 137.636 300.386 139.228 301.88C140.82 303.373 141.715 305.399 141.715 307.511V351.451C141.713 353.563 140.818 355.587 139.226 357.079C137.634 358.572 135.475 359.41 133.224 359.41Z" fill="white"/>
</svg>
