<svg width="14" height="14" viewBox="0 0 14 14" fill="none" xmlns="http://www.w3.org/2000/svg">
<path d="M4.95898 8.3125C4.95898 9.4325 5.88065 10.3542 7.00065 10.3542C8.12065 10.3542 9.04232 9.4325 9.04232 8.3125" stroke="#71706E" stroke-miterlimit="10" stroke-linecap="round" stroke-linejoin="round"/>
<path d="M5.13901 1.16602L3.02734 3.28352" stroke="#71706E" stroke-miterlimit="10" stroke-linecap="round" stroke-linejoin="round"/>
<path d="M8.86133 1.16602L10.973 3.28352" stroke="#71706E" stroke-miterlimit="10" stroke-linecap="round" stroke-linejoin="round"/>
<path d="M1.16602 4.57878C1.16602 3.49961 1.74352 3.41211 2.46102 3.41211H11.5377C12.2552 3.41211 12.8327 3.49961 12.8327 4.57878C12.8327 5.83294 12.2552 5.74544 11.5377 5.74544H2.46102C1.74352 5.74544 1.16602 5.83294 1.16602 4.57878Z" stroke="#71706E"/>
<path d="M2.04102 5.83398L2.86352 10.874C3.05018 12.0057 3.49935 12.834 5.16768 12.834H8.68518C10.4993 12.834 10.7677 12.0407 10.9777 10.944L11.9577 5.83398" stroke="#71706E" stroke-linecap="round"/>
</svg>
