<svg width="36" height="36" viewBox="0 0 36 36" fill="none" xmlns="http://www.w3.org/2000/svg">
<path d="M19.38 3.38977L29.145 8.65477C30.285 9.26977 30.285 11.0248 29.145 11.6398L19.38 16.9048C18.51 17.3698 17.49 17.3698 16.62 16.9048L6.855 11.6398C5.715 11.0248 5.715 9.26977 6.855 8.65477L16.62 3.38977C17.49 2.92477 18.51 2.92477 19.38 3.38977Z" stroke="#6A6A6A" stroke-width="1.2" stroke-linecap="round" stroke-linejoin="round"/>
<path d="M5.415 15.1955L14.49 19.7405C15.615 20.3105 16.335 21.4655 16.335 22.7255V31.3055C16.335 32.5505 15.03 33.3455 13.92 32.7905L4.845 28.2455C3.72 27.6755 3 26.5205 3 25.2605V16.6805C3 15.4355 4.305 14.6405 5.415 15.1955Z" stroke="#6A6A6A" stroke-width="1.2" stroke-linecap="round" stroke-linejoin="round"/>
<path d="M30.585 15.1955L21.51 19.7405C20.385 20.3105 19.665 21.4655 19.665 22.7255V31.3055C19.665 32.5505 20.97 33.3455 22.08 32.7905L31.155 28.2455C32.28 27.6755 33 26.5205 33 25.2605V16.6805C33 15.4355 31.695 14.6405 30.585 15.1955Z" stroke="#6A6A6A" stroke-width="1.2" stroke-linecap="round" stroke-linejoin="round"/>
</svg>
