<svg width="14" height="14" viewBox="0 0 14 14" fill="none" xmlns="http://www.w3.org/2000/svg">
<path d="M10.4989 4.17651C10.4639 4.17067 10.4231 4.17067 10.3881 4.17651C9.58307 4.14734 8.94141 3.48817 8.94141 2.6715C8.94141 1.83734 9.61224 1.1665 10.4464 1.1665C11.2806 1.1665 11.9514 1.84317 11.9514 2.6715C11.9456 3.48817 11.3039 4.14734 10.4989 4.17651Z" stroke="#6A6A6A" stroke-width="0.8" stroke-linecap="round" stroke-linejoin="round"/>
<path d="M9.89641 8.42326C10.6956 8.55743 11.5764 8.41743 12.1947 8.00326C13.0172 7.45493 13.0172 6.5566 12.1947 6.00827C11.5706 5.5941 10.6781 5.45409 9.87891 5.59409" stroke="#6A6A6A" stroke-width="0.8" stroke-linecap="round" stroke-linejoin="round"/>
<path d="M3.48375 4.17651C3.51875 4.17067 3.55958 4.17067 3.59458 4.17651C4.39958 4.14734 5.04125 3.48817 5.04125 2.6715C5.04125 1.83734 4.37042 1.1665 3.53625 1.1665C2.70208 1.1665 2.03125 1.84317 2.03125 2.6715C2.03708 3.48817 2.67875 4.14734 3.48375 4.17651Z" stroke="#6A6A6A" stroke-width="0.8" stroke-linecap="round" stroke-linejoin="round"/>
<path d="M4.08318 8.42326C3.28401 8.55743 2.40318 8.41743 1.78484 8.00326C0.962344 7.45493 0.962344 6.5566 1.78484 6.00827C2.40901 5.5941 3.30151 5.45409 4.10068 5.59409" stroke="#6A6A6A" stroke-width="0.8" stroke-linecap="round" stroke-linejoin="round"/>
<path d="M7.00281 8.53393C6.96781 8.52809 6.92698 8.52809 6.89198 8.53393C6.08698 8.50476 5.44531 7.84559 5.44531 7.02893C5.44531 6.19476 6.11614 5.52393 6.95031 5.52393C7.78448 5.52393 8.45531 6.20059 8.45531 7.02893C8.44948 7.84559 7.80781 8.51059 7.00281 8.53393Z" stroke="#6A6A6A" stroke-width="0.8" stroke-linecap="round" stroke-linejoin="round"/>
<path d="M5.30437 10.3715C4.48188 10.9198 4.48188 11.8181 5.30437 12.3665C6.23771 12.9906 7.76604 12.9906 8.69937 12.3665C9.52187 11.8181 9.52187 10.9198 8.69937 10.3715C7.77187 9.75313 6.23771 9.75313 5.30437 10.3715Z" stroke="#6A6A6A" stroke-width="0.8" stroke-linecap="round" stroke-linejoin="round"/>
</svg>
