<svg width="14" height="14" viewBox="0 0 14 14" fill="none" xmlns="http://www.w3.org/2000/svg">
<path d="M7.58922 1.70352L11.0309 3.23185C12.0226 3.66935 12.0226 4.39268 11.0309 4.83018L7.58922 6.35852C7.19839 6.53352 6.55672 6.53352 6.16589 6.35852L2.72422 4.83018C1.73255 4.39268 1.73255 3.66935 2.72422 3.23185L6.16589 1.70352C6.55672 1.52852 7.19839 1.52852 7.58922 1.70352Z" stroke="#71706E" stroke-linecap="round" stroke-linejoin="round"/>
<path d="M1.75 6.41602C1.75 6.90602 2.1175 7.47185 2.56667 7.67018L6.5275 9.43185C6.83083 9.56602 7.175 9.56602 7.4725 9.43185L11.4333 7.67018C11.8825 7.47185 12.25 6.90602 12.25 6.41602" stroke="#71706E" stroke-linecap="round" stroke-linejoin="round"/>
<path d="M1.75 9.33398C1.75 9.87648 2.07083 10.3665 2.56667 10.5882L6.5275 12.3498C6.83083 12.484 7.175 12.484 7.4725 12.3498L11.4333 10.5882C11.9292 10.3665 12.25 9.87648 12.25 9.33398" stroke="#71706E" stroke-linecap="round" stroke-linejoin="round"/>
</svg>
