<svg width="16" height="16" viewBox="0 0 16 16" fill="none" xmlns="http://www.w3.org/2000/svg">
<path d="M3.33333 6.66602C2.6 6.66602 2 7.26602 2 7.99935C2 8.73268 2.6 9.33268 3.33333 9.33268C4.06667 9.33268 4.66667 8.73268 4.66667 7.99935C4.66667 7.26602 4.06667 6.66602 3.33333 6.66602Z" stroke="#6A6A6A" stroke-width="1.5"/>
<path d="M12.6673 6.66602C11.934 6.66602 11.334 7.26602 11.334 7.99935C11.334 8.73268 11.934 9.33268 12.6673 9.33268C13.4007 9.33268 14.0007 8.73268 14.0007 7.99935C14.0007 7.26602 13.4007 6.66602 12.6673 6.66602Z" stroke="#6A6A6A" stroke-width="1.5"/>
<path d="M7.99935 6.66602C7.26602 6.66602 6.66602 7.26602 6.66602 7.99935C6.66602 8.73268 7.26602 9.33268 7.99935 9.33268C8.73268 9.33268 9.33268 8.73268 9.33268 7.99935C9.33268 7.26602 8.73268 6.66602 7.99935 6.66602Z" stroke="#6A6A6A" stroke-width="1.5"/>
</svg>
