<svg width="14" height="14" viewBox="0 0 14 14" fill="none" xmlns="http://www.w3.org/2000/svg">
<path d="M7 8.75C7.9665 8.75 8.75 7.9665 8.75 7C8.75 6.0335 7.9665 5.25 7 5.25C6.0335 5.25 5.25 6.0335 5.25 7C5.25 7.9665 6.0335 8.75 7 8.75Z" stroke="#71706E" stroke-miterlimit="10" stroke-linecap="round" stroke-linejoin="round"/>
<path d="M1.16797 7.5135V6.48683C1.16797 5.88017 1.6638 5.3785 2.2763 5.3785C3.33214 5.3785 3.7638 4.63183 3.23297 3.716C2.92964 3.191 3.11047 2.5085 3.6413 2.20517L4.65047 1.62767C5.1113 1.3535 5.7063 1.51683 5.98047 1.97767L6.04464 2.0885C6.56964 3.00433 7.43297 3.00433 7.9638 2.0885L8.02797 1.97767C8.30214 1.51683 8.89714 1.3535 9.35797 1.62767L10.3671 2.20517C10.898 2.5085 11.0788 3.191 10.7755 3.716C10.2446 4.63183 10.6763 5.3785 11.7321 5.3785C12.3388 5.3785 12.8405 5.87433 12.8405 6.48683V7.5135C12.8405 8.12017 12.3446 8.62183 11.7321 8.62183C10.6763 8.62183 10.2446 9.3685 10.7755 10.2843C11.0788 10.8152 10.898 11.4918 10.3671 11.7952L9.35797 12.3727C8.89714 12.6468 8.30214 12.4835 8.02797 12.0227L7.9638 11.9118C7.4388 10.996 6.57547 10.996 6.04464 11.9118L5.98047 12.0227C5.7063 12.4835 5.1113 12.6468 4.65047 12.3727L3.6413 11.7952C3.11047 11.4918 2.92964 10.8093 3.23297 10.2843C3.7638 9.3685 3.33214 8.62183 2.2763 8.62183C1.6638 8.62183 1.16797 8.12017 1.16797 7.5135Z" stroke="#71706E" stroke-miterlimit="10" stroke-linecap="round" stroke-linejoin="round"/>
</svg>
