<svg width="24" height="24" viewBox="0 0 24 24" fill="none" xmlns="http://www.w3.org/2000/svg">
<path d="M8.69995 4.16989L4.16995 8.69989C2.30995 10.5599 2.30995 13.5799 4.16995 15.4499L8.55995 19.8399C10.42 21.6999 13.44 21.6999 15.31 19.8399L19.83 15.2999C20.78 14.3499 21.29 13.0399 21.22 11.6999L20.98 6.69989C20.89 4.69989 19.3 3.10989 17.31 3.00989L12.31 2.76989C10.96 2.70989 9.64995 3.21989 8.69995 4.16989Z" stroke="#292D32" stroke-width="1.5" stroke-linecap="round" stroke-linejoin="round"/>
<path d="M12 9.5C12 10.8807 13.1193 12 14.5 12C15.8807 12 17 10.8807 17 9.5C17 8.11929 15.8807 7 14.5 7C13.1193 7 12 8.11929 12 9.5Z" stroke="#292D32" stroke-width="1.5" stroke-linecap="round"/>
</svg>
