<svg width="10" height="10" viewBox="0 0 10 10" fill="none" xmlns="http://www.w3.org/2000/svg">
<path d="M7.08334 8.64592H2.91668C1.07918 8.64592 0.520844 8.08758 0.520844 6.25008V6.04175C0.520844 5.87091 0.66251 5.72925 0.833344 5.72925C1.23334 5.72925 1.56251 5.40008 1.56251 5.00008C1.56251 4.60008 1.23334 4.27091 0.833344 4.27091C0.66251 4.27091 0.520844 4.12925 0.520844 3.95841V3.75008C0.520844 1.91258 1.07918 1.35425 2.91668 1.35425H7.08334C8.92084 1.35425 9.47918 1.91258 9.47918 3.75008V4.16675C9.47918 4.33758 9.33751 4.47925 9.16668 4.47925C8.76668 4.47925 8.43751 4.80841 8.43751 5.20841C8.43751 5.60842 8.76668 5.93758 9.16668 5.93758C9.33751 5.93758 9.47918 6.07925 9.47918 6.25008C9.47918 8.08758 8.92084 8.64592 7.08334 8.64592ZM1.14584 6.31675C1.15418 7.75008 1.45001 8.02092 2.91668 8.02092H7.08334C8.47501 8.02092 8.81251 7.77508 8.85001 6.52508C8.25418 6.38341 7.81251 5.84591 7.81251 5.20841C7.81251 4.57091 8.25834 4.03341 8.85418 3.89175V3.75008C8.85418 2.26258 8.57084 1.97925 7.08334 1.97925H2.91668C1.45001 1.97925 1.15418 2.25008 1.14584 3.68341C1.74168 3.82508 2.18751 4.36258 2.18751 5.00008C2.18751 5.63758 1.74168 6.17508 1.14584 6.31675Z" fill="#999999"/>
<path d="M6.25 6.61678C6.01666 6.61678 5.82916 6.42928 5.82916 6.20011C5.82916 5.97095 6.01666 5.78345 6.24583 5.78345C6.475 5.78345 6.6625 5.97095 6.6625 6.20011C6.6625 6.42928 6.48333 6.61678 6.25 6.61678Z" fill="#999999"/>
<path d="M3.75 4.53328C3.51666 4.53328 3.32916 4.34578 3.32916 4.11662C3.32916 3.88745 3.51666 3.69995 3.74583 3.69995C3.975 3.69995 4.1625 3.88745 4.1625 4.11662C4.1625 4.34578 3.98333 4.53328 3.75 4.53328Z" fill="#999999"/>
<path d="M3.59582 6.84585C3.51665 6.84585 3.43749 6.81668 3.37499 6.75418C3.25415 6.63335 3.25415 6.43335 3.37499 6.31252L6.17915 3.50835C6.29999 3.38752 6.49999 3.38752 6.62082 3.50835C6.74165 3.62918 6.74165 3.82918 6.62082 3.95002L3.81665 6.75418C3.75832 6.81668 3.67499 6.84585 3.59582 6.84585Z" fill="#999999"/>
</svg>
