<svg width="10" height="10" viewBox="0 0 10 10" fill="none" xmlns="http://www.w3.org/2000/svg">
<path d="M8.75 2.49154C7.3625 2.35404 5.96667 2.2832 4.575 2.2832C3.75 2.2832 2.925 2.32487 2.1 2.4082L1.25 2.49154" stroke="#4D4D4D" stroke-linecap="round" stroke-linejoin="round"/>
<path d="M3.54102 2.07051L3.63268 1.52467C3.69935 1.12884 3.74935 0.833008 4.45352 0.833008H5.54518C6.24935 0.833008 6.30352 1.14551 6.36602 1.52884L6.45768 2.07051" stroke="#4D4D4D" stroke-linecap="round" stroke-linejoin="round"/>
<path d="M7.85482 3.80859L7.58398 8.00443C7.53815 8.65859 7.50065 9.16693 6.33815 9.16693H3.66315C2.50065 9.16693 2.46315 8.65859 2.41732 8.00443L2.14648 3.80859" stroke="#4D4D4D" stroke-linecap="round" stroke-linejoin="round"/>
<path d="M4.30469 6.875H5.69219" stroke="#4D4D4D" stroke-linecap="round" stroke-linejoin="round"/>
<path d="M3.95898 5.20801H6.04232" stroke="#4D4D4D" stroke-linecap="round" stroke-linejoin="round"/>
</svg>
